<svg width="25" height="24" viewBox="0 0 25 24" fill="none" xmlns="http://www.w3.org/2000/svg">
<path d="M11.3962 16.7303C11.2649 16.7305 11.1349 16.7049 11.0135 16.6548C10.8922 16.6047 10.782 16.5311 10.6892 16.4383L6.44716 12.1953C6.35159 12.1031 6.27533 11.9928 6.22283 11.8708C6.17034 11.7489 6.14266 11.6177 6.14142 11.4849C6.14017 11.3521 6.16538 11.2204 6.21557 11.0975C6.26577 10.9745 6.33994 10.8628 6.43377 10.7689C6.52759 10.6749 6.63919 10.6006 6.76205 10.5502C6.88491 10.4999 7.01657 10.4745 7.14935 10.4755C7.28213 10.4766 7.41336 10.5041 7.53541 10.5564C7.65745 10.6087 7.76784 10.6848 7.86016 10.7803L11.3952 14.3153L17.7602 7.95226C17.9477 7.76462 18.202 7.65915 18.4673 7.65906C18.7326 7.65896 18.987 7.76425 19.1747 7.95176C19.3623 8.13927 19.4678 8.39364 19.4679 8.65891C19.468 8.92418 19.3627 9.17862 19.1752 9.36626L12.1032 16.4383C12.0103 16.5311 11.9001 16.6047 11.7788 16.6548C11.6575 16.7049 11.5274 16.7305 11.3962 16.7303Z" fill="#2FAB73"/>
</svg>
